<?xml version="1.0" encoding="UTF-8"?>
<svg width="104px" height="104px" viewBox="0 0 104 104" version="1.1" xmlns="http://www.w3.org/2000/svg" xmlns:xlink="http://www.w3.org/1999/xlink">
    <title>Logo</title>
    <g id="Logo" stroke="none" stroke-width="1" fill="none" fill-rule="evenodd">
        <g id="Group-2" transform="translate(2.000000, 2.000000)">
            <g id="Group" transform="translate(24.000000, 27.000000)">
                <path d="M34.4636244,47.072 L20.2876244,47.0724638 L20.2876244,46.3592446 L21.7086799,45.8599912 C22.6560502,45.5747036 23.2836831,45.1467721 23.5915785,44.5761968 C23.8994738,44.0056214 24.0534215,43.2448543 24.0534215,42.2938955 L24.0534215,42.2938955 L24.0534215,4.92121212 C24.0534215,3.97025326 23.8876317,3.20948617 23.5560521,2.63891085 C23.2244725,2.06833553 22.5849975,1.61663007 21.6376271,1.28379447 L21.6376271,1.28379447 L20.2876244,0.713219148 L20.2876244,-7.10542736e-14 L37.5534488,-7.10542736e-14 C44.6113579,-7.10542736e-14 49.7153156,1.29568145 52.865322,3.88704436 C56.0153283,6.47840726 57.5903315,9.88997219 57.5903315,14.1217391 C57.5903315,16.8319719 56.9390144,19.3163519 55.6363802,21.5748792 C54.333746,23.8334065 52.1903206,25.6283414 49.206104,26.9596838 C46.2218875,28.2910262 42.1955635,28.9566974 37.1271322,28.9566974 L37.1271322,28.9566974 L34.4637681,29 L34.4636244,47.072 Z M36.8599896,1.77631939 L34.4981795,1.77631939 L34.4981795,27.5329505 L37.1378496,27.5329505 C39.4070398,27.5329505 41.2594399,27.1576262 42.69505,26.4069776 C44.13066,25.6563289 45.1957901,24.3426938 45.8904402,22.4660723 C46.5850902,20.5894507 46.9324152,17.9856382 46.9324152,14.6546349 C46.9324152,11.2767161 46.5503577,8.64944591 45.7862426,6.77282433 C45.0221276,4.89620276 43.89911,3.59429654 42.41719,2.86710568 C40.9352699,2.13991482 39.0828698,1.77631939 36.8599896,1.77631939 L36.8599896,1.77631939 Z" id="Combined-Shape" fill="#FE7062"></path>
                <path d="M34.4636244,47.072 L20.2876244,47.0724638 L20.2876244,46.3592446 L21.7086799,45.8599912 C22.6560502,45.5747036 23.2836831,45.1467721 23.5915785,44.5761968 C23.8994738,44.0056214 24.0534215,43.2448543 24.0534215,42.2938955 L24.0534215,42.2938955 L24.0534215,4.92121212 C24.0534215,3.97025326 23.8876317,3.20948617 23.5560521,2.63891085 C23.2244725,2.06833553 22.5849975,1.61663007 21.6376271,1.28379447 L21.6376271,1.28379447 L20.2876244,0.713219148 L20.2876244,3.90798505e-14 L37.5534488,3.90798505e-14 C44.6113579,3.90798505e-14 49.7153156,1.29568145 52.865322,3.88704436 C56.0153283,6.47840726 57.5903315,9.88997219 57.5903315,14.1217391 C57.5903315,16.8319719 56.9390144,19.3163519 55.6363802,21.5748792 C54.333746,23.8334065 52.1903206,25.6283414 49.206104,26.9596838 C46.2218875,28.2910262 42.1955635,28.9566974 37.1271322,28.9566974 L37.1271322,28.9566974 L34.4637681,29 L34.4636244,47.072 Z M36.8599896,1.77631939 L34.4981795,1.77631939 L34.4981795,27.5329505 L37.1378496,27.5329505 C39.4070398,27.5329505 41.2594399,27.1576262 42.69505,26.4069776 C44.13066,25.6563289 45.1957901,24.3426938 45.8904402,22.4660723 C46.5850902,20.5894507 46.9324152,17.9856382 46.9324152,14.6546349 C46.9324152,11.2767161 46.5503577,8.64944591 45.7862426,6.77282433 C45.0221276,4.89620276 43.89911,3.59429654 42.41719,2.86710568 C40.9352699,2.13991482 39.0828698,1.77631939 36.8599896,1.77631939 L36.8599896,1.77631939 Z" id="Combined-Shape" fill="#8D63B0"></path>
                <path d="M34.4637681,47.0724638 L34.4637681,36.1449275 L33.6231884,36.1449275 L32.3801493,42.7931489 C32.0473137,43.6965598 31.6193822,44.397892 31.0963549,44.8971454 C30.5733275,45.3963988 29.8363344,45.6460255 28.8853755,45.6460255 L14.4783487,45.6460255 L14.4783487,23.46491 L22.1097936,23.46491 C23.0607525,23.46491 23.7739716,23.7145367 24.249451,24.2137901 C24.7249305,24.7130435 25.1766359,25.3906017 25.6045674,26.2464646 L27.0310057,29.2419851 L27.7442249,29.2419851 L27.7442249,16.4040404 L27.0310057,16.4040404 L25.6045674,19.256917 C25.2241839,20.11278 24.7843654,20.7903382 24.285112,21.2895916 C23.7858586,21.788845 23.0607525,22.0384717 22.1097936,22.0384717 L14.4783487,22.0384717 L14.4783487,1.4264383 L27.3162934,1.4264383 C28.2672522,1.4264383 28.9804714,1.68795198 29.4559508,2.21097936 C29.9314302,2.73400673 30.3831357,3.42345191 30.8110672,4.27931489 L34.0434783,10.9275362 L34.4637681,10.9275362 L34.4637681,0 L0,0 L0,0.713219148 L1.64040404,1.35511638 C2.54381496,1.68795198 3.12627727,2.12777046 3.38779095,2.67457181 C3.64930464,3.22137315 3.78006148,3.97025326 3.78006148,4.92121212 L3.78006148,42.1512516 C3.78006148,43.1022105 3.62553067,43.8510906 3.31646904,44.397892 C3.00740741,44.9446933 2.44871907,45.3845118 1.64040404,45.7173474 L0,46.3592446 L0,47.0724638 L34.4637681,47.0724638 Z" id="E" fill="#F29407"></path>
            </g>
            <circle id="Oval" stroke="#FFFFFF" stroke-width="3" cx="50" cy="50" r="50"></circle>
            <circle id="Oval" stroke="#FFFFFF" stroke-width="3" cx="50" cy="50" r="42"></circle>
        </g>
    </g>
</svg>