<?xml version="1.0" encoding="UTF-8"?>
<svg width="300px" height="300px" viewBox="0 0 300 300" version="1.1" xmlns="http://www.w3.org/2000/svg" xmlns:xlink="http://www.w3.org/1999/xlink">
    <title>logo-color</title>
    <g id="logo-color" stroke="none" stroke-width="1" fill="none" fill-rule="evenodd">
        <path d="M146.54,207.8 C147.086667,207.8 147.551333,207.608667 147.934,207.226 C148.316667,206.843333 148.508,206.378667 148.508,205.832 L148.508,205.832 L148.508,186.48 C148.508,185.933333 148.316667,185.468667 147.934,185.086 C147.551333,184.703333 147.086667,184.512 146.54,184.512 L146.54,184.512 L95.044,184.512 C94.4973333,184.512 94.224,184.238667 94.224,183.692 L94.224,183.692 L94.224,162.044 C94.224,161.497333 94.4973333,161.224 95.044,161.224 L95.044,161.224 L128.008,161.224 C128.554667,161.224 129.019333,161.032667 129.402,160.65 C129.784667,160.267333 129.976,159.802667 129.976,159.256 L129.976,159.256 L129.976,140.068 C129.976,139.521333 129.784667,139.056667 129.402,138.674 C129.019333,138.291333 128.554667,138.1 128.008,138.1 L128.008,138.1 L95.044,138.1 C94.4973333,138.1 94.224,137.826667 94.224,137.28 L94.224,137.28 L94.224,117.108 C94.224,116.561333 94.4973333,116.288 95.044,116.288 L95.044,116.288 L146.54,116.288 C147.086667,116.288 147.551333,116.096667 147.934,115.714 C148.316667,115.331333 148.508,114.866667 148.508,114.32 L148.508,114.32 L148.508,94.968 C148.508,94.4213333 148.316667,93.9566667 147.934,93.574 C147.551333,93.1913333 147.086667,93 146.54,93 L146.54,93 L68.968,93 C68.4213333,93 67.9566667,93.1913333 67.574,93.574 C67.1913333,93.9566667 67,94.4213333 67,94.968 L67,94.968 L67,205.832 C67,206.378667 67.1913333,206.843333 67.574,207.226 C67.9566667,207.608667 68.4213333,207.8 68.968,207.8 L68.968,207.8 L146.54,207.8 Z M186.392,207.8 C186.938667,207.8 187.403333,207.608667 187.786,207.226 C188.168667,206.843333 188.36,206.378667 188.36,205.832 L188.36,205.832 L188.36,166.308 C188.36,165.761333 188.633333,165.488 189.18,165.488 L189.18,165.488 L209.188,165.488 C216.950667,165.488 223.784,164.012 229.688,161.06 C235.592,158.108 240.156667,153.898667 243.382,148.432 C246.607333,142.965333 248.22,136.678667 248.22,129.572 C248.22,122.356 246.662,115.987333 243.546,110.466 C240.43,104.944667 236.002,100.653333 230.262,97.592 C224.522,94.5306667 217.934667,93 210.5,93 L210.5,93 L163.104,93 C162.557333,93 162.092667,93.1913333 161.71,93.574 C161.327333,93.9566667 161.136,94.4213333 161.136,94.968 L161.136,94.968 L161.136,205.832 C161.136,206.378667 161.327333,206.843333 161.71,207.226 C162.092667,207.608667 162.557333,207.8 163.104,207.8 L163.104,207.8 L186.392,207.8 Z M206.072,143.84 L189.18,143.84 C188.633333,143.84 188.36,143.566667 188.36,143.02 L188.36,143.02 L188.36,117.108 C188.36,116.561333 188.633333,116.288 189.18,116.288 L189.18,116.288 L206.072,116.288 C210.554667,116.288 214.19,117.572667 216.978,120.142 C219.766,122.711333 221.16,126.073333 221.16,130.228 C221.16,134.273333 219.766,137.553333 216.978,140.068 C214.19,142.582667 210.554667,143.84 206.072,143.84 L206.072,143.84 Z" id="EP" fill="#A061D5" fill-rule="nonzero"></path>
        <circle id="Oval" stroke="#A061D5" stroke-width="15" cx="150" cy="150" r="140"></circle>
    </g>
</svg>