<?xml version="1.0" encoding="UTF-8"?>
<svg width="104px" height="104px" viewBox="0 0 104 104" version="1.1" xmlns="http://www.w3.org/2000/svg" xmlns:xlink="http://www.w3.org/1999/xlink">
    <title>favicon</title>
    <g id="favicon" stroke="none" stroke-width="1" fill="none" fill-rule="evenodd">
        <g id="Group" transform="translate(6.000000, 15.000000)">
            <path d="M54.801,75 L32,75 L32,73.8636364 L34.2857143,73.0681818 C35.8095238,72.6136364 36.8190476,71.9318182 37.3142857,71.0227273 C37.8095238,70.1136364 38.0571429,68.9015152 38.0571429,67.3863636 L38.0571429,67.3863636 L38.0571429,7.84090909 C38.0571429,6.32575758 37.7904762,5.11363636 37.2571429,4.20454545 C36.7238095,3.29545455 35.6952381,2.57575758 34.1714286,2.04545455 L34.1714286,2.04545455 L32,1.13636364 L32,0 L59.7714286,0 C71.1238095,0 79.3333333,2.06439394 84.4,6.19318182 C89.4666667,10.3219697 92,15.7575758 92,22.5 C92,26.8181818 90.952381,30.7765152 88.8571429,34.375 C86.7619048,37.9734848 83.3142857,40.8333333 78.5142857,42.9545455 C73.7142857,45.0757576 67.2380952,46.1363636 59.0857143,46.1363636 L59.0857143,46.1363636 L54.8017934,46.2053571 L54.801,75 Z M58.6560255,2.83018868 L54.8571429,2.83018868 L54.8571429,43.8679245 L59.1029529,43.8679245 C62.7528598,43.8679245 65.7323756,43.2699247 68.0415004,42.0739251 C70.3506252,40.8779256 72.0638468,38.7849263 73.1811652,35.7949273 C74.2984836,32.8049283 74.8571429,28.6563048 74.8571429,23.3490566 C74.8571429,17.9670585 74.2426177,13.7810599 73.0135674,10.7910609 C71.7845172,7.80106197 69.9781857,5.72675018 67.594573,4.56812558 C65.2109604,3.40950098 62.2314445,2.83018868 58.6560255,2.83018868 L58.6560255,2.83018868 Z" id="Combined-Shape" fill="#FE7062"></path>
            <path d="M54.801,75 L32,75 L32,73.8636364 L34.2857143,73.0681818 C35.8095238,72.6136364 36.8190476,71.9318182 37.3142857,71.0227273 C37.8095238,70.1136364 38.0571429,68.9015152 38.0571429,67.3863636 L38.0571429,67.3863636 L38.0571429,7.84090909 C38.0571429,6.32575758 37.7904762,5.11363636 37.2571429,4.20454545 C36.7238095,3.29545455 35.6952381,2.57575758 34.1714286,2.04545455 L34.1714286,2.04545455 L32,1.13636364 L32,0 L59.7714286,0 C71.1238095,0 79.3333333,2.06439394 84.4,6.19318182 C89.4666667,10.3219697 92,15.7575758 92,22.5 C92,26.8181818 90.952381,30.7765152 88.8571429,34.375 C86.7619048,37.9734848 83.3142857,40.8333333 78.5142857,42.9545455 C73.7142857,45.0757576 67.2380952,46.1363636 59.0857143,46.1363636 L59.0857143,46.1363636 L54.8017934,46.2053571 L54.801,75 Z M58.6560255,2.83018868 L54.8571429,2.83018868 L54.8571429,43.8679245 L59.1029529,43.8679245 C62.7528598,43.8679245 65.7323756,43.2699247 68.0415004,42.0739251 C70.3506252,40.8779256 72.0638468,38.7849263 73.1811652,35.7949273 C74.2984836,32.8049283 74.8571429,28.6563048 74.8571429,23.3490566 C74.8571429,17.9670585 74.2426177,13.7810599 73.0135674,10.7910609 C71.7845172,7.80106197 69.9781857,5.72675018 67.594573,4.56812558 C65.2109604,3.40950098 62.2314445,2.83018868 58.6560255,2.83018868 L58.6560255,2.83018868 Z" id="Combined-Shape" fill="#A061D5"></path>
            <path d="M55,75 L55,57.5892857 L53.6585366,57.5892857 L51.6747967,68.1818182 C51.1436314,69.6212121 50.4607046,70.7386364 49.6260163,71.5340909 C48.7913279,72.3295455 47.6151762,72.7272727 46.097561,72.7272727 L23.1056911,72.7272727 L23.1056911,37.3863636 L35.2845528,37.3863636 C36.802168,37.3863636 37.9403794,37.7840909 38.699187,38.5795455 C39.4579946,39.375 40.1788618,40.4545455 40.8617886,41.8181818 L43.1382114,46.5909091 L44.2764228,46.5909091 L44.2764228,26.1363636 L43.1382114,26.1363636 L40.8617886,30.6818182 C40.2547425,32.0454545 39.5528455,33.125 38.7560976,33.9204545 C37.9593496,34.7159091 36.802168,35.1136364 35.2845528,35.1136364 L23.1056911,35.1136364 L23.1056911,2.27272727 L43.5934959,2.27272727 C45.1111111,2.27272727 46.2493225,2.68939394 47.0081301,3.52272727 C47.7669377,4.35606061 48.4878049,5.45454545 49.1707317,6.81818182 L54.3292683,17.4107143 L55,17.4107143 L55,0 L0,0 L0,1.13636364 L2.61788618,2.15909091 C4.0596206,2.68939394 4.98915989,3.39015152 5.40650407,4.26136364 C5.82384824,5.13257576 6.03252033,6.32575758 6.03252033,7.84090909 L6.03252033,67.1590909 C6.03252033,68.6742424 5.78590786,69.8674242 5.29268293,70.7386364 C4.79945799,71.6098485 3.90785908,72.3106061 2.61788618,72.8409091 L0,73.8636364 L0,75 L55,75 Z" id="E" fill="#F29407"></path>
        </g>
    </g>
</svg>