<svg width="300" height="300" viewBox="0 0 300 300" fill="none" xmlns="http://www.w3.org/2000/svg">
<circle cx="150" cy="150" r="140" stroke="white" stroke-width="9"/>
<path d="M59.0898 118.318C59.5911 114.08 60.8216 110.184 62.7812 106.629C64.7865 103.029 67.7943 100.112 71.8047 97.8789C75.6784 96.0104 79.347 95.0762 82.8105 95.0762L130.047 95.0078C134.148 95.0078 138.296 94.8711 142.488 94.5977C143.263 94.5521 144.061 94.5293 144.881 94.5293C146.613 94.5293 148.094 94.8255 149.324 95.418C150.6 95.9648 151.512 96.8535 152.059 98.084L155.682 106.355C156.183 107.449 156.32 108.862 156.092 110.594C156.001 111.414 155.864 112.234 155.682 113.055C155.499 113.875 155.34 114.741 155.203 115.652C155.066 116.792 154.975 117.999 154.93 119.275C154.93 120.551 154.998 121.691 155.135 122.693C155.408 124.015 155.477 125.405 155.34 126.863C154.656 129.917 152.993 131.443 150.35 131.443C148.755 131.443 147.479 130.965 146.521 130.008C145.61 129.051 144.881 128.025 144.334 126.932C142.921 124.334 141.167 122.397 139.07 121.121C136.974 119.799 134.627 118.934 132.029 118.523C129.477 118.113 126.766 117.908 123.895 117.908C121.707 117.908 119.679 118.341 117.811 119.207C116.215 120.073 115.145 121.121 114.598 122.352C114.096 123.582 113.777 124.995 113.641 126.59L112.137 139.373C113.504 139.327 114.871 139.259 116.238 139.168C117.605 139.031 118.768 138.803 119.725 138.484C120.545 138.165 121.206 137.732 121.707 137.186L122.527 136.023L123.074 134.588C123.621 133.221 124.327 132.127 125.193 131.307C126.105 130.441 127.312 130.008 128.816 130.008C130.958 130.008 132.485 130.965 133.396 132.879L137.02 141.219C137.612 143.087 137.726 145.047 137.361 147.098C137.27 147.781 137.179 148.442 137.088 149.08C136.951 149.673 136.86 150.242 136.814 150.789L136.404 154.139C136.313 154.868 136.154 156.053 135.926 157.693C135.698 159.288 135.424 160.861 135.105 162.41C134.786 163.914 134.513 164.939 134.285 165.486C132.599 168.084 130.457 169.383 127.859 169.383C126.766 169.383 125.877 169.246 125.193 168.973C124.555 168.654 124.031 168.243 123.621 167.742L122.938 166.99L122.391 166.238C121.206 164.552 119.816 163.413 118.221 162.82C116.626 162.228 114.757 161.932 112.615 161.932C111.521 161.932 110.428 161.977 109.334 162.068L106.805 182.508C106.941 182.508 107.101 182.531 107.283 182.576C109.152 182.713 111.089 182.781 113.094 182.781C115.053 182.781 117.537 182.713 120.545 182.576C123.598 182.394 126.082 181.938 127.996 181.209C130.73 180.024 133.123 178.247 135.174 175.877L135.721 175.262C135.857 175.125 135.971 174.965 136.062 174.783C136.199 174.646 136.336 174.51 136.473 174.373C137.202 173.462 138.022 172.641 138.934 171.912C139.845 171.137 140.893 170.75 142.078 170.75C144.129 170.75 145.587 171.639 146.453 173.416L150.076 181.756C150.486 182.531 150.623 183.396 150.486 184.354C150.122 186.678 149.347 188.888 148.162 190.984C145.929 194.904 143.536 198.686 140.984 202.332C140.255 203.426 139.389 204.314 138.387 204.998C137.384 205.727 136.222 206.092 134.9 206.092H75.5645C74.6074 206.092 73.8099 205.841 73.1719 205.34C72.5794 204.839 72.1237 204.201 71.8047 203.426L68.1133 195.154C67.7943 194.334 67.5892 193.491 67.498 192.625C67.4069 191.759 67.4069 190.984 67.498 190.301C67.6348 189.253 67.9538 188.159 68.4551 187.02C69.002 185.835 69.7083 184.832 70.5742 184.012C71.4857 183.191 72.5566 182.781 73.7871 182.781C74.8809 182.781 75.9062 182.599 76.8633 182.234C77.8659 181.824 78.4811 180.981 78.709 179.705L86.2285 118.66C85.4082 118.751 84.4512 119.07 83.3574 119.617C82.3092 120.164 81.5573 120.779 81.1016 121.463L83.2891 126.658C83.8359 127.615 84.041 128.846 83.9043 130.35C83.4486 133.175 82.0586 135.545 79.7344 137.459C77.4557 139.327 74.9948 140.262 72.3516 140.262C70.2552 140.262 68.5007 139.715 67.0879 138.621C65.6751 137.482 64.6042 136.046 63.875 134.314L60.1836 126.043C59.1354 123.536 58.7708 120.962 59.0898 118.318ZM59.9102 118.318V118.455C59.6823 120.46 59.8646 122.42 60.457 124.334C61.0951 126.248 62.0977 127.866 63.4648 129.188C64.8776 130.509 66.6549 131.17 68.7969 131.17C71.0755 131.17 73.2174 130.395 75.2227 128.846C77.2279 127.296 78.5495 125.451 79.1875 123.309C79.3242 122.853 79.4154 122.42 79.4609 122.01C79.6432 120.46 79.347 119.116 78.5723 117.977C78.1621 117.384 77.8203 116.883 77.5469 116.473C77.1823 116.017 76.9089 115.652 76.7266 115.379C76.5443 115.06 76.4303 114.809 76.3848 114.627C76.3392 114.399 76.3164 114.148 76.3164 113.875C76.6354 112.645 77.5697 111.619 79.1191 110.799C80.7142 109.979 82.013 109.568 83.0156 109.568C84.6107 109.568 85.7956 110.138 86.5703 111.277C87.3451 112.371 87.6413 113.715 87.459 115.311L79.5293 179.705C79.2559 181.255 78.5267 182.303 77.3418 182.85C76.1569 183.351 74.9264 183.602 73.6504 183.602C72.4199 183.602 71.2806 184.262 70.2324 185.584C69.2298 186.86 68.5918 188.432 68.3184 190.301C68.1361 192.169 68.3867 193.764 69.0703 195.086C69.7995 196.362 70.7793 197 72.0098 197H131.346C132.485 197 133.488 196.681 134.354 196.043C135.219 195.405 135.994 194.607 136.678 193.65C137.179 192.921 137.908 191.827 138.865 190.369C139.139 189.913 139.435 189.435 139.754 188.934C139.845 188.842 139.913 188.774 139.959 188.729C141.235 186.769 142.488 184.718 143.719 182.576C144.949 180.389 145.701 178.361 145.975 176.492C146.339 174.35 145.519 172.801 143.514 171.844C143.012 171.661 142.534 171.57 142.078 171.57C140.939 171.57 139.891 171.98 138.934 172.801C138.022 173.576 137.225 174.487 136.541 175.535L135.789 176.355C133.51 178.999 131.004 180.867 128.27 181.961C125.626 183.055 120.636 183.602 113.299 183.602C112.889 183.602 112.456 183.602 112 183.602C110.359 183.602 108.719 183.533 107.078 183.396C105.438 183.214 104.116 182.713 103.113 181.893C102.111 181.072 101.723 179.705 101.951 177.791L104.959 153.045C106.189 152.908 107.374 152.84 108.514 152.84C108.65 152.84 108.787 152.84 108.924 152.84C110.747 152.84 112.456 153.09 114.051 153.592C115.646 154.048 117.036 154.822 118.221 155.916C118.631 156.326 118.973 156.782 119.246 157.283C119.702 158.012 120.271 158.65 120.955 159.197C121.912 159.926 122.983 160.291 124.168 160.291C124.669 160.291 125.216 160.223 125.809 160.086C127.586 159.539 128.953 158.468 129.91 156.873C130.457 155.643 131.141 151.974 131.961 145.867C132.143 144.363 132.326 142.996 132.508 141.766C132.918 138.165 133.1 135.978 133.055 135.203C132.964 132.924 131.847 131.489 129.705 130.896C129.386 130.851 129.067 130.828 128.748 130.828C127.563 130.828 126.469 131.261 125.467 132.127C124.738 132.947 124.191 133.904 123.826 134.998C123.325 136.684 122.482 137.892 121.297 138.621C120.112 139.305 118.699 139.715 117.059 139.852C114.507 140.125 111.932 140.262 109.334 140.262C108.468 140.262 107.579 140.239 106.668 140.193H106.531L109.061 119.617C109.106 119.07 109.152 118.501 109.197 117.908C109.38 115.219 110.428 112.941 112.342 111.072C114.575 109.523 117.309 108.748 120.545 108.748C125.011 108.702 129.044 109.272 132.645 110.457C136.245 111.642 139.184 114.217 141.463 118.182C142.146 119.731 143.217 120.962 144.676 121.873C145.359 122.192 146.043 122.352 146.727 122.352C147.775 122.352 148.732 121.987 149.598 121.258C150.327 120.392 150.76 119.412 150.896 118.318C150.988 117.179 150.942 116.017 150.76 114.832C150.76 114.786 150.737 114.764 150.691 114.764C150.691 114.718 150.691 114.695 150.691 114.695C150.418 112.234 150.441 109.751 150.76 107.244C150.851 106.424 150.988 105.581 151.17 104.715C151.17 104.624 151.17 104.51 151.17 104.373C151.215 104.236 151.261 104.122 151.307 104.031C151.535 103.439 151.694 102.869 151.785 102.322C151.876 101.137 151.785 100.021 151.512 98.9727C151.01 97.6966 150.145 96.7852 148.914 96.2383C147.729 95.6458 146.385 95.3496 144.881 95.3496C144.607 95.3496 144.357 95.3496 144.129 95.3496C143.582 95.3496 143.012 95.3724 142.42 95.418C139.275 95.6914 136.062 95.8281 132.781 95.8281C132.326 95.8281 131.847 95.8281 131.346 95.8281C130.89 95.8281 130.434 95.8281 129.979 95.8281L82.7422 95.8965C82.6055 95.9421 82.332 95.9648 81.9219 95.9648C81.694 95.9648 81.4206 95.9876 81.1016 96.0332H80.7598C78.8457 96.1243 76.4076 96.7852 73.4453 98.0156C70.5286 99.2005 67.7487 101.388 65.1055 104.578C62.5078 107.723 60.776 112.303 59.9102 118.318ZM159.988 126.043C158.94 123.536 158.576 120.962 158.895 118.318C159.259 114.9 160.171 111.574 161.629 108.338C163.133 105.057 165.434 102.231 168.533 99.8613C173.364 96.6712 178.058 95.0762 182.615 95.0762C189.132 95.0762 195.626 95.0534 202.098 95.0078C208.615 95.0078 215.109 95.0078 221.58 95.0078C225.818 95.0078 229.669 95.3496 233.133 96.0332C236.596 96.7168 239.627 98.0612 242.225 100.066C244.822 102.026 246.964 104.92 248.65 108.748L252.273 116.609C254.734 122.306 255.486 128.322 254.529 134.656C253.8 140.444 251.795 145.822 248.514 150.789C245.232 155.757 240.857 159.699 235.389 162.615C231.925 164.301 228.188 165.509 224.178 166.238C220.167 166.967 216.408 167.423 212.898 167.605C211.714 167.651 210.643 167.902 209.686 168.357C208.774 168.813 208.227 169.702 208.045 171.023L206.609 182.781C207.566 182.781 208.318 183.032 208.865 183.533C209.458 184.035 209.936 184.673 210.301 185.447L213.924 193.719C214.243 194.539 214.448 195.382 214.539 196.248C214.63 197.114 214.63 197.889 214.539 198.572C214.402 199.62 214.061 200.714 213.514 201.854C213.012 203.038 212.306 204.041 211.395 204.861C210.529 205.682 209.503 206.092 208.318 206.092H175.369C174.412 206.092 173.615 205.841 172.977 205.34C172.384 204.839 171.928 204.201 171.609 203.426L167.918 195.154C167.599 194.334 167.394 193.491 167.303 192.625C167.212 191.759 167.212 190.984 167.303 190.301C167.439 189.253 167.758 188.159 168.26 187.02C168.807 185.835 169.513 184.832 170.379 184.012C171.29 183.191 172.361 182.781 173.592 182.781H178.172L186.033 118.66C184.575 118.934 183.23 119.503 182 120.369L181.18 121.053L183.777 126.932C184.188 127.798 184.347 128.937 184.256 130.35C183.755 133.449 182.319 135.887 179.949 137.664C177.625 139.396 175.027 140.262 172.156 140.262C170.06 140.262 168.305 139.715 166.893 138.621C165.48 137.482 164.409 136.046 163.68 134.314L159.988 126.043ZM180.564 96.0332C178.65 96.1243 176.212 96.7852 173.25 98.0156C170.333 99.2005 167.553 101.388 164.91 104.578C162.312 107.723 160.581 112.303 159.715 118.318V118.455C159.487 120.46 159.669 122.42 160.262 124.334C160.9 126.248 161.902 127.866 163.27 129.188C164.682 130.509 166.46 131.17 168.602 131.17C171.427 131.17 173.82 130.395 175.779 128.846C177.785 127.296 179.061 125.405 179.607 123.172C179.653 122.762 179.699 122.397 179.744 122.078C179.972 120.483 179.721 119.23 178.992 118.318C178.536 117.726 178.195 117.27 177.967 116.951C177.739 116.678 177.579 116.495 177.488 116.404C177.397 116.313 177.306 116.222 177.215 116.131C176.896 115.812 176.622 115.47 176.395 115.105C176.212 114.741 176.121 114.331 176.121 113.875C176.212 113.419 176.417 112.986 176.736 112.576C177.055 112.12 177.443 111.756 177.898 111.482C180.223 110.024 182.729 109.295 185.418 109.295C187.104 109.295 187.879 110.001 187.742 111.414L178.855 183.602H173.455C172.225 183.602 171.085 184.262 170.037 185.584C169.035 186.86 168.396 188.432 168.123 190.301C167.941 192.169 168.191 193.764 168.875 195.086C169.604 196.362 170.584 197 171.814 197H204.764C205.994 197 207.111 196.362 208.113 195.086C209.161 193.764 209.822 192.169 210.096 190.301C210.278 188.432 210.005 186.86 209.275 185.584C208.592 184.262 207.635 183.602 206.404 183.602H201.004L203.602 162.752C203.921 160.018 205.812 158.605 209.275 158.514C216.476 158.286 223.016 157.033 228.895 154.754C234.819 152.43 240.014 148.077 244.48 141.697C247.534 136.867 249.38 131.74 250.018 126.316C250.245 124.585 250.359 122.807 250.359 120.984C250.223 113.556 247.876 107.312 243.318 102.254C241.268 100.249 238.966 98.7904 236.414 97.8789C233.862 96.9219 231.128 96.3294 228.211 96.1016C226.16 95.9193 224.064 95.8281 221.922 95.8281C220.874 95.8281 219.826 95.8509 218.777 95.8965H182.547C182.41 95.9421 182.137 95.9648 181.727 95.9648C181.499 95.9648 181.225 95.9876 180.906 96.0332H180.564ZM205.926 141.219L209.207 114.49C209.298 113.989 209.663 113.579 210.301 113.26C210.939 112.941 211.668 112.781 212.488 112.781C216.134 112.781 219.074 113.533 221.307 115.037C223.585 116.495 225.18 118.478 226.092 120.984C227.049 123.445 227.345 126.225 226.98 129.324C226.661 131.831 225.75 134.109 224.246 136.16C222.788 138.211 220.76 139.852 218.162 141.082C215.564 142.312 212.443 142.928 208.797 142.928C207.977 142.928 207.293 142.768 206.746 142.449C206.199 142.085 205.926 141.674 205.926 141.219ZM214.402 122.215C214.129 122.306 213.924 122.397 213.787 122.488C213.696 122.579 213.65 122.671 213.65 122.762L211.326 141.971C215.063 141.697 218.322 140.512 221.102 138.416C223.882 136.274 225.568 133.243 226.16 129.324C226.297 127.911 226.342 126.59 226.297 125.359C223.836 123.035 220.418 121.873 216.043 121.873C215.815 121.873 215.542 121.896 215.223 121.941C214.949 121.987 214.676 122.078 214.402 122.215Z" fill="white"/>
</svg>
