<svg width="300" height="300" viewBox="0 0 300 300" fill="none" xmlns="http://www.w3.org/2000/svg">
<g clip-path="url(#clip0_123_32)">
<path d="M54.7979 85.4971C55.693 77.9287 57.8903 70.9707 61.3896 64.623C64.9704 58.194 70.3415 52.9857 77.5029 48.998C84.4202 45.6615 90.9714 43.9932 97.1562 43.9932L181.507 43.8711C188.831 43.8711 196.237 43.627 203.724 43.1387C205.107 43.0573 206.531 43.0166 207.996 43.0166C211.089 43.0166 213.733 43.5456 215.931 44.6035C218.209 45.5801 219.837 47.167 220.813 49.3643L227.283 64.1348C228.178 66.0879 228.423 68.6107 228.016 71.7031C227.853 73.168 227.609 74.6328 227.283 76.0977C226.958 77.5625 226.673 79.1087 226.429 80.7363C226.185 82.7708 226.022 84.9274 225.94 87.2061C225.94 89.4847 226.062 91.5192 226.307 93.3096C226.795 95.6696 226.917 98.1517 226.673 100.756C225.452 106.208 222.482 108.935 217.762 108.935C214.913 108.935 212.635 108.08 210.926 106.371C209.298 104.662 207.996 102.831 207.02 100.878C204.497 96.2393 201.364 92.7806 197.62 90.502C193.877 88.1419 189.686 86.5957 185.047 85.8633C180.49 85.1309 175.647 84.7646 170.521 84.7646C166.614 84.7646 162.993 85.5378 159.656 87.084C156.808 88.6302 154.896 90.502 153.919 92.6992C153.024 94.8965 152.454 97.4193 152.21 100.268L149.524 123.095C151.966 123.013 154.407 122.891 156.849 122.729C159.29 122.484 161.365 122.077 163.074 121.508C164.539 120.938 165.719 120.165 166.614 119.188L168.079 117.113L169.056 114.55C170.032 112.108 171.294 110.155 172.84 108.69C174.467 107.144 176.624 106.371 179.31 106.371C183.134 106.371 185.861 108.08 187.488 111.498L193.958 126.391C195.016 129.727 195.219 133.227 194.568 136.889C194.406 138.109 194.243 139.289 194.08 140.429C193.836 141.487 193.673 142.504 193.592 143.48L192.859 149.462C192.697 150.764 192.412 152.88 192.005 155.81C191.598 158.658 191.11 161.465 190.54 164.232C189.97 166.918 189.482 168.749 189.075 169.726C186.064 174.364 182.239 176.684 177.601 176.684C175.647 176.684 174.061 176.439 172.84 175.951C171.701 175.382 170.765 174.649 170.032 173.754L168.812 172.411L167.835 171.068C165.719 168.057 163.237 166.023 160.389 164.965C157.54 163.907 154.204 163.378 150.379 163.378C148.426 163.378 146.473 163.459 144.52 163.622L140.003 200.121C140.247 200.121 140.532 200.162 140.857 200.243C144.194 200.487 147.653 200.609 151.233 200.609C154.733 200.609 159.168 200.487 164.539 200.243C169.992 199.918 174.427 199.104 177.845 197.802C182.728 195.686 187 192.512 190.662 188.28L191.639 187.182C191.883 186.938 192.086 186.653 192.249 186.327C192.493 186.083 192.737 185.839 192.981 185.595C194.284 183.967 195.748 182.502 197.376 181.2C199.004 179.817 200.875 179.125 202.991 179.125C206.653 179.125 209.257 180.712 210.804 183.886L217.273 198.778C218.006 200.162 218.25 201.708 218.006 203.417C217.355 207.567 215.971 211.514 213.855 215.258C209.868 222.257 205.595 229.011 201.038 235.521C199.736 237.475 198.19 239.062 196.399 240.282C194.609 241.584 192.534 242.235 190.174 242.235H84.2168C82.5078 242.235 81.0837 241.788 79.9443 240.893C78.8864 239.997 78.0726 238.858 77.5029 237.475L70.9111 222.704C70.3415 221.239 69.9753 219.734 69.8125 218.188C69.6497 216.641 69.6497 215.258 69.8125 214.037C70.0566 212.165 70.6263 210.212 71.5215 208.178C72.498 206.062 73.7594 204.271 75.3057 202.807C76.9333 201.342 78.8457 200.609 81.043 200.609C82.9961 200.609 84.8271 200.284 86.5361 199.633C88.3265 198.9 89.4251 197.395 89.832 195.116L103.26 86.1074C101.795 86.2702 100.086 86.8398 98.1328 87.8164C96.2611 88.793 94.9183 89.8916 94.1045 91.1123L98.0107 100.39C98.9873 102.099 99.3535 104.296 99.1094 106.981C98.2956 112.027 95.8135 116.259 91.6631 119.677C87.5941 123.013 83.1995 124.682 78.4795 124.682C74.736 124.682 71.6029 123.705 69.0801 121.752C66.5573 119.717 64.6449 117.154 63.3428 114.062L56.751 99.291C54.8792 94.8151 54.2282 90.2171 54.7979 85.4971ZM56.2627 85.4971V85.7412C55.8558 89.3219 56.1813 92.8213 57.2393 96.2393C58.3786 99.6572 60.1689 102.546 62.6104 104.906C65.1331 107.266 68.307 108.446 72.1318 108.446C76.2008 108.446 80.0257 107.063 83.6064 104.296C87.1872 101.529 89.5472 98.2331 90.6865 94.4082C90.9307 93.5944 91.0934 92.8213 91.1748 92.0889C91.5003 89.3219 90.9714 86.9212 89.5879 84.8867C88.8555 83.8288 88.2451 82.9336 87.7568 82.2012C87.1058 81.3874 86.6175 80.7363 86.292 80.248C85.9665 79.6784 85.763 79.2308 85.6816 78.9053C85.6003 78.4984 85.5596 78.0508 85.5596 77.5625C86.1292 75.3652 87.7975 73.5342 90.5645 72.0693C93.4128 70.6045 95.7321 69.8721 97.5225 69.8721C100.371 69.8721 102.487 70.8893 103.87 72.9238C105.254 74.877 105.783 77.2777 105.457 80.126L91.2969 195.116C90.8086 197.883 89.5065 199.755 87.3906 200.731C85.2747 201.627 83.0775 202.074 80.7988 202.074C78.6016 202.074 76.5671 203.254 74.6953 205.614C72.9049 207.893 71.7656 210.701 71.2773 214.037C70.9518 217.374 71.3994 220.222 72.6201 222.582C73.9222 224.861 75.6719 226 77.8691 226H183.826C185.861 226 187.651 225.43 189.197 224.291C190.743 223.152 192.127 221.728 193.348 220.019C194.243 218.716 195.545 216.763 197.254 214.159C197.742 213.345 198.271 212.491 198.841 211.596C199.004 211.433 199.126 211.311 199.207 211.229C201.486 207.73 203.724 204.068 205.921 200.243C208.118 196.337 209.461 192.715 209.949 189.379C210.6 185.554 209.135 182.787 205.555 181.078C204.66 180.753 203.805 180.59 202.991 180.59C200.957 180.59 199.085 181.322 197.376 182.787C195.748 184.171 194.324 185.798 193.104 187.67L191.761 189.135C187.692 193.855 183.216 197.191 178.333 199.145C173.613 201.098 164.702 202.074 151.6 202.074C150.867 202.074 150.094 202.074 149.28 202.074C146.351 202.074 143.421 201.952 140.491 201.708C137.562 201.382 135.201 200.487 133.411 199.022C131.621 197.558 130.929 195.116 131.336 191.698L136.707 147.509C138.904 147.265 141.02 147.143 143.055 147.143C143.299 147.143 143.543 147.143 143.787 147.143C147.042 147.143 150.094 147.59 152.942 148.485C155.791 149.299 158.273 150.683 160.389 152.636C161.121 153.368 161.731 154.182 162.22 155.077C163.034 156.379 164.051 157.519 165.271 158.495C166.98 159.797 168.893 160.448 171.009 160.448C171.904 160.448 172.881 160.326 173.938 160.082C177.112 159.105 179.554 157.193 181.263 154.345C182.239 152.147 183.46 145.596 184.925 134.691C185.25 132.006 185.576 129.564 185.901 127.367C186.634 120.938 186.959 117.032 186.878 115.648C186.715 111.579 184.721 109.016 180.896 107.958C180.327 107.877 179.757 107.836 179.188 107.836C177.072 107.836 175.118 108.609 173.328 110.155C172.026 111.62 171.049 113.329 170.398 115.282C169.503 118.293 167.998 120.45 165.882 121.752C163.766 122.973 161.243 123.705 158.313 123.949C153.756 124.438 149.158 124.682 144.52 124.682C142.973 124.682 141.386 124.641 139.759 124.56H139.515L144.031 87.8164C144.113 86.8398 144.194 85.8226 144.275 84.7646C144.601 79.9632 146.473 75.8942 149.891 72.5576C153.878 69.7907 158.761 68.4072 164.539 68.4072C172.514 68.3258 179.716 69.3431 186.146 71.459C192.575 73.5749 197.824 78.1729 201.893 85.2529C203.113 88.0199 205.026 90.2171 207.63 91.8447C208.851 92.4144 210.071 92.6992 211.292 92.6992C213.164 92.6992 214.873 92.0482 216.419 90.7461C217.721 89.1999 218.494 87.4502 218.738 85.4971C218.901 83.4626 218.82 81.3874 218.494 79.2715C218.494 79.1901 218.453 79.1494 218.372 79.1494C218.372 79.068 218.372 79.0273 218.372 79.0273C217.884 74.6328 217.924 70.1976 218.494 65.7217C218.657 64.2568 218.901 62.7513 219.227 61.2051C219.227 61.0423 219.227 60.8389 219.227 60.5947C219.308 60.3506 219.389 60.1471 219.471 59.9844C219.878 58.9264 220.162 57.9092 220.325 56.9326C220.488 54.8167 220.325 52.8229 219.837 50.9512C218.942 48.6725 217.396 47.0449 215.198 46.0684C213.082 45.0104 210.682 44.4814 207.996 44.4814C207.508 44.4814 207.06 44.4814 206.653 44.4814C205.677 44.4814 204.66 44.5221 203.602 44.6035C197.986 45.0918 192.249 45.3359 186.39 45.3359C185.576 45.3359 184.721 45.3359 183.826 45.3359C183.012 45.3359 182.199 45.3359 181.385 45.3359L97.0342 45.458C96.79 45.5394 96.3018 45.5801 95.5693 45.5801C95.1624 45.5801 94.6742 45.6208 94.1045 45.7021H93.4941C90.0762 45.8649 85.7223 47.0449 80.4326 49.2422C75.2243 51.3581 70.2601 55.2643 65.54 60.9609C60.9014 66.5762 57.8089 74.7549 56.2627 85.4971Z" fill="white"/>
</g>
<defs>
<clipPath id="clip0_123_32">
<rect width="300" height="300" fill="white"/>
</clipPath>
</defs>
</svg>
